<svg width="366" height="200" viewBox="0 0 366 200" fill="none" xmlns="http://www.w3.org/2000/svg">
<path d="M365.417 33.6667C365.417 51.9083 350.492 66.8333 332.25 66.8333C329.265 66.8333 326.446 66.5017 323.792 65.6725L264.756 124.543C265.585 127.197 265.917 130.182 265.917 133.167C265.917 151.408 250.992 166.333 232.75 166.333C214.508 166.333 199.583 151.408 199.583 133.167C199.583 130.182 199.915 127.197 200.744 124.543L158.457 82.2558C155.803 83.085 152.818 83.4167 149.833 83.4167C146.848 83.4167 143.863 83.085 141.21 82.2558L65.7558 157.876C66.585 160.529 66.9166 163.348 66.9166 166.333C66.9166 184.575 51.9916 199.5 33.75 199.5C15.5083 199.5 0.583313 184.575 0.583313 166.333C0.583313 148.092 15.5083 133.167 33.75 133.167C36.735 133.167 39.5541 133.498 42.2075 134.328L117.827 58.8733C116.998 56.22 116.667 53.235 116.667 50.25C116.667 32.0083 131.592 17.0833 149.833 17.0833C168.075 17.0833 183 32.0083 183 50.25C183 53.235 182.668 56.22 181.839 58.8733L224.127 101.161C226.78 100.332 229.765 100 232.75 100C235.735 100 238.72 100.332 241.373 101.161L300.244 42.1242C299.415 39.4708 299.083 36.6517 299.083 33.6667C299.083 15.425 314.008 0.5 332.25 0.5C350.492 0.5 365.417 15.425 365.417 33.6667Z" fill="#EEEEEE"/>
</svg>
