<?xml version="1.0" encoding="utf-8"?>
<!-- Generator: Adobe Illustrator 25.4.1, SVG Export Plug-In . SVG Version: 6.00 Build 0)  -->
<svg version="1.1" id="Layer_1" xmlns="http://www.w3.org/2000/svg" xmlns:xlink="http://www.w3.org/1999/xlink" x="0px" y="0px"
	 viewBox="0 0 512 512" style="enable-background:new 0 0 512 512;" xml:space="preserve">
<style type="text/css">
	.st0{fill:#0183FD;}
	.st1{fill:#D58D54;}
	.st2{fill:#ED9D5D;}
	.st3{enable-background:new    ;}
</style>
<path class="st0" d="M264.8,319.8l-67,184c-2.4,6.5-9.5,9.8-16,7.5c-2.1-0.8-4-2.1-5.4-3.9l-28.4-35c-2.9-3.6-7.5-5.3-12.1-4.4
	l-44.2,8.6c-6.8,1.3-13.3-3.1-14.6-9.9c-0.4-2.2-0.2-4.5,0.5-6.6l67-184c2.4-6.5,9.5-9.8,16-7.5l96.8,35.2
	C263.8,306.1,267.2,313.3,264.8,319.8z"/>
<path class="st0" d="M247.2,319.8l67,184c2.4,6.5,9.5,9.8,16,7.5c2.1-0.8,4-2.1,5.4-3.9l28.4-35c2.9-3.6,7.5-5.3,12.1-4.4l44.2,8.6
	c6.8,1.3,13.3-3.1,14.6-9.9c0.4-2.2,0.2-4.5-0.5-6.6l-67-184c-2.4-6.5-9.5-9.8-16-7.5l-96.8,35.2
	C248.2,306.1,244.8,313.3,247.2,319.8z"/>
<circle class="st1" cx="256" cy="204.8" r="204.8"/>
<circle class="st2" cx="256" cy="204.8" r="153.6"/>
<g class="st3">
	<path class="st1" d="M254,261.6c-6.1,0-12.1-0.7-17.9-2.2c-5.9-1.5-11.5-3.7-16.8-6.7L224,241c4.7,2.6,9.6,4.5,14.6,5.8
		c5.1,1.3,10,2,14.8,2c5,0,9.4-0.7,13.3-2.2c3.8-1.5,6.9-3.8,9.1-7c2.2-3.1,3.4-7.1,3.4-11.9c0-3.9-0.9-7.4-2.6-10.4
		c-1.8-3-4.6-5.4-8.4-7.1s-8.9-2.6-15-2.6h-13.4v-11.8h13.3c8,0,14-1.6,18-4.9c4-3.3,6-7.9,6-13.8c0-6.6-2.1-11.3-6.2-14.2
		c-4.2-2.8-9.5-4.2-16-4.2c-3.5,0-7.1,0.3-10.7,1c-3.6,0.7-7.2,1.6-10.7,2.8l2.4-2.4l-2.1,18.1h-9.8l-1.3-25.1c6-2,12-3.6,18.2-4.7
		c6.1-1.1,12-1.7,17.5-1.7c6.7,0,12.8,0.9,18.2,2.7c5.4,1.8,9.6,4.8,12.6,8.9c3,4.1,4.6,9.5,4.6,16.2c0,7.9-2.3,14.1-7,18.6
		c-4.6,4.5-11.4,7.4-20.4,8.6l-0.6-1.3c10.2,0.7,17.8,3.5,22.8,8.3c5,4.8,7.4,11.3,7.4,19.5c0,5.7-1.1,10.6-3.2,14.8
		c-2.1,4.2-5.1,7.7-9,10.5c-3.9,2.8-8.4,4.8-13.4,6.2C265.1,261,259.7,261.6,254,261.6z"/>
</g>
</svg>
