<svg width="74" height="74" viewBox="0 0 74 74" fill="none" xmlns="http://www.w3.org/2000/svg">
<path fill-rule="evenodd" clip-rule="evenodd" d="M37 0.0498047C16.76 0.0498047 0.333344 16.5997 0.333344 36.9915C0.333344 57.3833 16.76 73.9331 37 73.9331C57.24 73.9331 73.6667 57.3833 73.6667 36.9915C73.6667 16.5997 57.24 0.0498047 37 0.0498047ZM37 66.5448C20.83 66.5448 7.66668 53.2827 7.66668 36.9915C7.66668 20.7002 20.83 7.43814 37 7.43814C53.17 7.43814 66.3333 20.7002 66.3333 36.9915C66.3333 53.2827 53.17 66.5448 37 66.5448ZM29.6667 45.0078L51.2267 23.2861C52.6567 21.8454 55.0033 21.8454 56.4333 23.2861C57.8633 24.7268 57.8633 27.0542 56.4333 28.4949L32.27 52.8394C30.84 54.2802 28.53 54.2802 27.1 52.8394L17.6033 43.2716C16.1733 41.8308 16.1733 39.5035 17.6033 38.0628C18.2884 37.371 19.2184 36.9823 20.1883 36.9823C21.1582 36.9823 22.0883 37.371 22.7733 38.0628L29.6667 45.0078Z" fill="#1C5D6B"/>
</svg>
