<svg id="Layer_1" data-name="Layer 1" xmlns="http://www.w3.org/2000/svg" viewBox="0 0 32.11 36.44"><defs><style>.cls-1{fill:#1c5d6a;}.cls-2{fill:#fff;}.cls-3{fill:#fef7b9;}.cls-4{fill:none;stroke:#231f20;stroke-miterlimit:10;stroke-width:0.15px;}</style></defs><polygon class="cls-1" points="17.18 36.36 0.07 29.29 0.07 6.48 17.18 13.55 17.18 36.36"/><polygon class="cls-1" points="17.18 36.36 32.03 29.99 31.97 7.2 17.18 13.55 17.18 36.36"/><polygon class="cls-1" points="17.16 13.54 0.07 6.48 14.77 0.08 31.97 7.2 17.16 13.54"/><path class="cls-2" d="M12.36,11.55v7.21l-1.25-1.14V33.85L9,33V15.7L7.75,14.57V9.65Z" transform="translate(-0.01 -0.01)"/><path class="cls-2" d="M.08,6.48,1.32,7a13,13,0,0,1,2,.9A2,2,0,0,1,4.1,9a9.14,9.14,0,0,1,.35,2c0,.73.07,2.18.07,4.35v8c0,2,0,3.41-.11,4.1a5.32,5.32,0,0,1-.35,1.63,1.65,1.65,0,0,1-.64.81,2.11,2.11,0,0,1-1.13.24L.08,29.3Zm1.66,4.77v15a.55.55,0,0,0,.56-.51A20.41,20.41,0,0,0,2.41,23V14.08c0-1,0-1.69,0-2a1.48,1.48,0,0,0-.16-.64A.5.5,0,0,0,1.74,11.25Z" transform="translate(-0.01 -0.01)"/><path class="cls-2" d="M4.65,8.38,7.56,9.57v4.82L6.15,13.12v5.33H7.47v4.33H6.15v5H7.7v4.66l-3-1.26Z" transform="translate(-0.01 -0.01)"/><path class="cls-2" d="M17.19,13.55l0,9.57L15.93,22V35.85L13.82,35V20.08L12.57,19v-7.3Z" transform="translate(-0.01 -0.01)"/><path class="cls-3" d="M17.17,13.55l2.11-.88a2.29,2.29,0,0,1,1.51.43,3.38,3.38,0,0,1,.83,1.76,20.51,20.51,0,0,1,.32,4.28,11.55,11.55,0,0,1-.23,2.78,2.09,2.09,0,0,1-.88,1.21,2.41,2.41,0,0,1,1,1.54A15.36,15.36,0,0,1,22.09,28v1.22a23.13,23.13,0,0,1-.19,3.42,3,3,0,0,1-.6,1.52,6,6,0,0,1-1.67,1.2l-2.44,1Zm2.11,3v5.06l.21,0c.21,0,.34-.14.4-.43A18.06,18.06,0,0,0,20,18.72a10,10,0,0,0-.08-1.5,1,1,0,0,0-.18-.54A.7.7,0,0,0,19.28,16.56Zm0,8.6v6.36a.6.6,0,0,0,.57-.39A7.06,7.06,0,0,0,20,29.4V27.28a7.1,7.1,0,0,0-.12-1.77C19.79,25.3,19.6,25.18,19.28,25.16Z" transform="translate(-0.01 -0.01)"/><path class="cls-3" d="M26.9,23.59c0,2.18,0,3.72-.06,4.63a13.23,13.23,0,0,1-.31,2.48,4.53,4.53,0,0,1-.73,1.72,1.23,1.23,0,0,1-2.09,0A4.42,4.42,0,0,1,23,30.75a11.79,11.79,0,0,1-.33-2.47c0-.9-.06-2.46-.06-4.69v-3.7c0-2.18,0-3.72.05-4.62A13.2,13.2,0,0,1,23,12.78a4.7,4.7,0,0,1,.72-1.72,1.33,1.33,0,0,1,1.06-.6,1.34,1.34,0,0,1,1,.56,4.42,4.42,0,0,1,.73,1.71,11.8,11.8,0,0,1,.33,2.48q.06,1.34.06,4.68ZM25,16.48A18.5,18.5,0,0,0,25,14.54c0-.28-.11-.42-.23-.42s-.17.12-.22.34a14.28,14.28,0,0,0-.08,2V26.59c0,1.26,0,2,.05,2.33s.12.44.24.44.21-.17.24-.51S25,27.7,25,26.43Z" transform="translate(-0.01 -0.01)"/><path class="cls-3" d="M32,7.2l-.92,12L32,30l-1.89.81c-.23-2.21-.37-4.14-.56-7.31-.06,1.4-.13,2.89-.23,4.46l-.18,3.26-2.11.91.8-12.91L27.1,9.3l2-.85c0,.61.18,2.6.29,4,.09,1.09.16,2.09.22,3L30.14,8Z" transform="translate(-0.01 -0.01)"/><polygon class="cls-4" points="0.07 6.48 14.77 0.08 31.97 7.2 32.03 29.99 17.18 36.36 0.07 29.3 0.07 6.48"/><polyline class="cls-4" points="17.18 36.36 17.18 13.54 31.97 7.2"/><line class="cls-4" x1="0.08" y1="6.48" x2="17.18" y2="13.54"/></svg>