<svg id="Layer_1" data-name="Layer 1" xmlns="http://www.w3.org/2000/svg" viewBox="0 0 51.13 58.03"><defs><style>.cls-1{fill:#00363f;}.cls-2{fill:#1c5d6a;}.cls-3{fill:#fff;}.cls-4{fill:#fef7b9;}.cls-5{fill:none;stroke:#231f20;stroke-miterlimit:10;stroke-width:0.15px;}</style></defs><rect class="cls-1" width="51.13" height="58.03"/><polygon class="cls-2" points="26.69 47.16 9.59 40.09 9.59 17.27 26.69 24.34 26.69 47.16"/><polygon class="cls-2" points="26.69 47.16 41.54 40.79 41.48 18 26.69 24.34 26.69 47.16"/><polygon class="cls-2" points="26.67 24.34 9.59 17.27 24.28 10.88 41.48 18 26.67 24.34"/><path class="cls-3" d="M21.86,22.34v7.21l-1.25-1.14V44.64l-2.11-.87V26.49l-1.25-1.13V20.44Z"/><path class="cls-3" d="M9.59,17.27l1.23.51a13,13,0,0,1,2,.9,2,2,0,0,1,.78,1.15,8.58,8.58,0,0,1,.35,2c.05.74.07,2.18.07,4.35v8c0,2,0,3.41-.1,4.1a5.59,5.59,0,0,1-.36,1.63,1.69,1.69,0,0,1-.63.81,2.15,2.15,0,0,1-1.14.24l-2.2-.87ZM11.24,22v15c.31,0,.49-.17.56-.51a20.41,20.41,0,0,0,.11-2.8V24.87c0-1,0-1.69,0-2a1.35,1.35,0,0,0-.16-.64A.5.5,0,0,0,11.24,22Z"/><path class="cls-3" d="M14.16,19.17l2.9,1.19v4.82l-1.41-1.27v5.33H17v4.33H15.65v5H17.2v4.66l-3-1.26Z"/><path class="cls-3" d="M26.69,24.35l0,9.56-1.23-1.12V46.64l-2.11-.87V30.87l-1.25-1.13v-7.3Z"/><path class="cls-4" d="M26.67,24.34l2.11-.88a2.27,2.27,0,0,1,1.51.43,3.3,3.3,0,0,1,.83,1.76,20.51,20.51,0,0,1,.32,4.28,12.26,12.26,0,0,1-.22,2.78,2.07,2.07,0,0,1-.89,1.21,2.41,2.41,0,0,1,1,1.54,15.36,15.36,0,0,1,.26,3.29V40a21.81,21.81,0,0,1-.19,3.42,2.78,2.78,0,0,1-.6,1.52,5.83,5.83,0,0,1-1.67,1.2l-2.44,1Zm2.12,3v5.06l.21,0c.2,0,.34-.14.39-.43a18.06,18.06,0,0,0,.09-2.45A11.78,11.78,0,0,0,29.41,28a1.12,1.12,0,0,0-.19-.55A.69.69,0,0,0,28.79,27.35Zm0,8.6v6.36a.6.6,0,0,0,.56-.39,6.56,6.56,0,0,0,.13-1.73V38.07a7.94,7.94,0,0,0-.11-1.77A.59.59,0,0,0,28.79,36Z"/><path class="cls-4" d="M36.4,34.38c0,2.18,0,3.72,0,4.63A13.2,13.2,0,0,1,36,41.49a4.7,4.7,0,0,1-.72,1.72,1.34,1.34,0,0,1-1.06.61,1.29,1.29,0,0,1-1-.57,4.42,4.42,0,0,1-.74-1.71,11.79,11.79,0,0,1-.33-2.47c0-.9,0-2.46,0-4.69v-3.7c0-2.18,0-3.72,0-4.62a13.23,13.23,0,0,1,.31-2.49,4.53,4.53,0,0,1,.73-1.72,1.3,1.3,0,0,1,1.06-.6,1.32,1.32,0,0,1,1,.57,4.3,4.3,0,0,1,.73,1.7A11.8,11.8,0,0,1,36.34,26q.06,1.34.06,4.68Zm-1.86-7.11a18.5,18.5,0,0,0-.06-1.94c0-.28-.11-.42-.22-.42s-.18.12-.23.34a15,15,0,0,0-.07,2V37.38c0,1.26,0,2,0,2.33s.11.44.23.44.21-.17.24-.51.06-1.15.06-2.42Z"/><path class="cls-4" d="M41.48,18l-.91,12,1,10.78-1.89.81c-.23-2.21-.37-4.14-.56-7.31-.06,1.41-.13,2.89-.23,4.46L38.69,42l-2.11.91L37.38,30l-.78-9.92,2-.85c0,.61.18,2.6.29,4,.09,1.09.16,2.09.22,3l.56-7.47Z"/><polygon class="cls-5" points="9.59 17.27 24.28 10.88 41.48 18 41.54 40.79 26.69 47.16 9.59 40.09 9.59 17.27"/><polyline class="cls-5" points="26.69 47.16 26.69 24.34 41.48 18"/><line class="cls-5" x1="9.59" y1="17.27" x2="26.69" y2="24.34"/></svg>