<svg id="Layer_1" data-name="Layer 1" xmlns="http://www.w3.org/2000/svg" viewBox="0 0 72.15 72"><defs><style>.cls-1{fill:#00363f;}.cls-2{fill:#1c5d6a;}.cls-3{fill:#fff;}.cls-4{fill:#fef7b9;}.cls-5{fill:none;stroke:#231f20;stroke-miterlimit:10;stroke-width:0.15px;}</style></defs><rect class="cls-1" width="72.15" height="72" rx="15.06"/><polygon class="cls-2" points="37.66 60.66 13.53 50.69 13.53 18.49 37.66 28.46 37.66 60.66"/><polygon class="cls-2" points="37.66 60.66 58.62 51.67 58.53 19.52 37.66 28.46 37.66 60.66"/><polygon class="cls-2" points="37.63 28.46 13.53 18.49 34.26 9.47 58.53 19.52 37.63 28.46"/><path class="cls-3" d="M30.85,25.64V35.81L29.08,34.2V57.11l-3-1.23V31.5l-1.76-1.6V23Z"/><path class="cls-3" d="M13.53,18.49l1.74.72a17.39,17.39,0,0,1,2.82,1.27,2.78,2.78,0,0,1,1.1,1.62,11.74,11.74,0,0,1,.49,2.82c.07,1,.1,3.08.1,6.14V42.35a56.89,56.89,0,0,1-.14,5.78,7.59,7.59,0,0,1-.51,2.3,2.29,2.29,0,0,1-.89,1.14,3,3,0,0,1-1.6.34l-3.11-1.22Zm2.33,6.67V46.33c.44,0,.69-.24.79-.72a30.77,30.77,0,0,0,.16-4V26.39a1.92,1.92,0,0,0-.23-.91A.71.71,0,0,0,15.86,25.16Z"/><path class="cls-3" d="M20,21.17l4.09,1.68v6.8l-2-1.79v7.52H24v6.11H22.08v7h2.19v6.58L20,53.34Z"/><path class="cls-3" d="M37.66,28.48V42l-1.73-1.58V59.93L33,58.7v-21l-1.77-1.6V25.78Z"/><path class="cls-4" d="M37.63,28.46l3-1.24a3.18,3.18,0,0,1,2.13.61,4.62,4.62,0,0,1,1.17,2.48,29.12,29.12,0,0,1,.45,6,16.65,16.65,0,0,1-.31,3.92A2.93,2.93,0,0,1,42.8,42a3.41,3.41,0,0,1,1.41,2.17,21.31,21.31,0,0,1,.36,4.65v1.76a31,31,0,0,1-.26,4.82,3.91,3.91,0,0,1-.85,2.15,8.23,8.23,0,0,1-2.36,1.69l-3.44,1.41Zm3,4.24v7.13h.3c.28,0,.48-.19.55-.6a26.62,26.62,0,0,0,.13-3.46,17,17,0,0,0-.1-2.14,1.56,1.56,0,0,0-.27-.78,1,1,0,0,0-.61-.14Zm0,12.13v9a.83.83,0,0,0,.79-.55,9.51,9.51,0,0,0,.19-2.44v-3a11,11,0,0,0-.16-2.5.85.85,0,0,0-.82-.43Z"/><path class="cls-4" d="M51.36,42.63v6.53a18,18,0,0,1-.56,3.5,6.69,6.69,0,0,1-1,2.43,1.89,1.89,0,0,1-1.49.86,1.83,1.83,0,0,1-1.42-.81,6.25,6.25,0,0,1-1-2.41,16.36,16.36,0,0,1-.46-3.48V30.89a18.82,18.82,0,0,1,.43-3.51,6.32,6.32,0,0,1,1-2.43,1.69,1.69,0,0,1,2.91,0,6.15,6.15,0,0,1,1,2.39,17.29,17.29,0,0,1,.51,3.5c0,1.26.08,3.47.08,6.61Zm-2.62-10a25,25,0,0,0-.09-2.74c0-.4-.15-.59-.31-.59s-.25.17-.32.48a20.4,20.4,0,0,0-.1,2.82V50.15c0,.47.15.62.32.62s.3-.24.34-.72.09-1.62.09-3.41Z"/><path class="cls-4" d="M58.53,19.52,57.25,36.45l1.41,15.21L56,52.8c-.32-3.12-.52-5.84-.79-10.31-.08,2-.18,4.08-.32,6.29l-.29,4.6-3,1.29,1.12-18.22-1.1-14,2.83-1.2c0,.86.25,3.67.41,5.65.12,1.53.22,2.94.31,4.23L56,20.59Z"/><polygon class="cls-5" points="13.53 18.49 34.26 9.47 58.53 19.52 58.62 51.67 37.66 60.66 13.53 50.69 13.53 18.49"/><polyline class="cls-5" points="37.66 60.66 37.66 28.46 58.53 19.52"/><line class="cls-5" x1="13.53" y1="18.49" x2="37.66" y2="28.46"/></svg>