<svg id="Layer_1" data-name="Layer 1" xmlns="http://www.w3.org/2000/svg" viewBox="0 0 409.6 511.98"><defs><style>.cls-1{fill:#e85454;}.cls-2{fill:#ea8d28;}.cls-3{fill:#ffa840;}</style></defs><path class="cls-1" d="M264.83,319.75l-67,184a12.5,12.5,0,0,1-21.45,3.6l-28.38-35a12.5,12.5,0,0,0-12.08-4.4l-44.24,8.57A12.5,12.5,0,0,1,77.57,460l67-184a12.49,12.49,0,0,1,16-7.47l96.79,35.23A12.5,12.5,0,0,1,264.83,319.75Z" transform="translate(-51.2 0)"/><path class="cls-1" d="M247.17,319.75l67,184a12.5,12.5,0,0,0,21.45,3.6l28.38-35a12.5,12.5,0,0,1,12.08-4.4l44.24,8.57A12.5,12.5,0,0,0,434.43,460l-67-184a12.49,12.49,0,0,0-16-7.47l-96.79,35.23A12.5,12.5,0,0,0,247.17,319.75Z" transform="translate(-51.2 0)"/><circle class="cls-2" cx="204.8" cy="204.8" r="204.8"/><circle class="cls-3" cx="204.8" cy="204.8" r="153.6"/></svg>