<?xml version="1.0" encoding="utf-8"?>
<!-- Generator: Adobe Illustrator 25.4.1, SVG Export Plug-In . SVG Version: 6.00 Build 0)  -->
<svg version="1.1" id="Layer_1" xmlns="http://www.w3.org/2000/svg" xmlns:xlink="http://www.w3.org/1999/xlink" x="0px" y="0px"
	 viewBox="0 0 512 512" style="enable-background:new 0 0 512 512;" xml:space="preserve">
<style type="text/css">
	.st0{fill:#E85454;}
	.st1{fill:#EA8D28;}
	.st2{fill:#FFA840;}
</style>
<path class="st0" d="M264.8,319.8l-67,184c-2.4,6.5-9.5,9.8-16,7.5c-2.1-0.8-4-2.1-5.4-3.9l-28.4-35c-2.9-3.6-7.5-5.3-12.1-4.4
	l-44.2,8.6c-6.8,1.3-13.3-3.1-14.6-9.9c-0.4-2.2-0.2-4.5,0.5-6.6l67-184c2.4-6.5,9.5-9.8,16-7.5l96.8,35.2
	C263.8,306.1,267.2,313.3,264.8,319.8z"/>
<path class="st0" d="M247.2,319.8l67,184c2.4,6.5,9.5,9.8,16,7.5c2.1-0.8,4-2.1,5.4-3.9l28.4-35c2.9-3.6,7.5-5.3,12.1-4.4l44.2,8.6
	c6.8,1.3,13.3-3.1,14.6-9.9c0.4-2.2,0.2-4.5-0.5-6.6l-67-184c-2.4-6.5-9.5-9.8-16-7.5l-96.8,35.2
	C248.2,306.1,244.8,313.3,247.2,319.8z"/>
<circle class="st1" cx="256" cy="204.8" r="204.8"/>
<circle class="st2" cx="256" cy="204.8" r="153.6"/>
<g>
	<path class="st1" d="M265.9,252l-3.4-4.3l21.3,3.8v8.6h-56.2v-8.6l25.3-3.5l-3.4,4v-90.2l4.3,0.3l-27.4,15.7l-5.3-10.1l31.2-20
		h13.4V252z"/>
</g>
</svg>
