<svg width="90" height="90" viewBox="0 0 90 90" fill="none" xmlns="http://www.w3.org/2000/svg">
<path d="M48.182 10.318C46.4246 8.56066 43.5754 8.56066 41.818 10.318L10.318 41.818C8.56066 43.5754 8.56066 46.4246 10.318 48.182C12.0754 49.9393 14.9246 49.9393 16.682 48.182L18 46.864V76.5C18 78.9853 20.0147 81 22.5 81H31.5C33.9853 81 36 78.9853 36 76.5V67.5C36 65.0147 38.0147 63 40.5 63H49.5C51.9853 63 54 65.0147 54 67.5V76.5C54 78.9853 56.0147 81 58.5 81H67.5C69.9853 81 72 78.9853 72 76.5V46.864L73.318 48.182C75.0754 49.9393 77.9246 49.9393 79.682 48.182C81.4393 46.4246 81.4393 43.5754 79.682 41.818L48.182 10.318Z" fill="black"/>
</svg>
