<svg id="Layer_1" data-name="Layer 1" xmlns="http://www.w3.org/2000/svg" viewBox="0 0 72.04 72.04"><defs><style>.cls-1{fill:#f55376;}.cls-2{fill:#fac8d5;}</style></defs><path class="cls-1" d="M56,72,16,72A16,16,0,0,1,0,56L0,16A16,16,0,0,1,16,0L56,0A16.06,16.06,0,0,1,72,16l0,40A16,16,0,0,1,56,72Z" transform="translate(0.02 0.02)"/><path class="cls-2" d="M36,50A14,14,0,1,1,50,36,14,14,0,0,1,36,50Zm0-24A10,10,0,1,0,46,36,10,10,0,0,0,36,26Z" transform="translate(0.02 0.02)"/><circle class="cls-2" cx="51.02" cy="21.02" r="3"/><path class="cls-2" d="M48,62H24A14,14,0,0,1,10,48V24A14,14,0,0,1,24,10H48A14,14,0,0,1,62,24V48A14,14,0,0,1,48,62ZM24,14A10,10,0,0,0,14,24V48A10,10,0,0,0,24,58H48A10,10,0,0,0,58,48V24A10,10,0,0,0,48,14Z" transform="translate(0.02 0.02)"/></svg>