<svg width="266" height="266" viewBox="0 0 266 266" fill="none" xmlns="http://www.w3.org/2000/svg">
<path fill-rule="evenodd" clip-rule="evenodd" d="M265.8 133C265.8 206.344 206.343 265.8 133 265.8C59.6566 265.8 0.200012 206.344 0.200012 133C0.200012 59.6568 59.6566 0.200195 133 0.200195C206.343 0.200195 265.8 59.6568 265.8 133ZM166.2 83.2002C166.2 101.536 151.336 116.4 133 116.4C114.664 116.4 99.8 101.536 99.8 83.2002C99.8 64.8643 114.664 50.0002 133 50.0002C151.336 50.0002 166.2 64.8643 166.2 83.2002ZM132.999 149.6C99.5077 149.6 70.6495 169.436 57.532 198.001C75.7969 219.188 102.832 232.6 133 232.6C163.167 232.6 190.201 219.189 208.466 198.002C195.349 169.437 166.491 149.6 132.999 149.6Z" fill="#EEEEEE"/>
</svg>
