<svg width="90" height="90" viewBox="0 0 90 90" fill="none" xmlns="http://www.w3.org/2000/svg">
<path fill-rule="evenodd" clip-rule="evenodd" d="M45 18.75C47.8875 18.75 50.25 21.1125 50.25 24V66C50.25 68.8875 47.8875 71.25 45 71.25C42.1125 71.25 39.75 68.8875 39.75 66V24C39.75 21.1125 42.1125 18.75 45 18.75ZM24 34.5H24.75C27.6375 34.5 30 36.8625 30 39.75V66C30 68.8875 27.6375 71.25 24.75 71.25H24C21.1125 71.25 18.75 68.8875 18.75 66V39.75C18.75 36.8625 21.1125 34.5 24 34.5ZM71.25 54C71.25 51.1125 68.8875 48.75 66 48.75C63.1125 48.75 60.75 51.1125 60.75 54V66C60.75 68.8875 63.1125 71.25 66 71.25C68.8875 71.25 71.25 68.8875 71.25 66V54Z" fill="black" fill-opacity="0.54"/>
</svg>
