<svg width="238" height="238" viewBox="0 0 238 238" fill="none" xmlns="http://www.w3.org/2000/svg">
<path fill-rule="evenodd" clip-rule="evenodd" d="M119 49.5835C126.636 49.5835 132.883 55.831 132.883 63.4668V174.534C132.883 182.169 126.636 188.417 119 188.417C111.364 188.417 105.117 182.169 105.117 174.534V63.4668C105.117 55.831 111.364 49.5835 119 49.5835ZM63.4666 91.2335H65.4499C73.0858 91.2335 79.3333 97.481 79.3333 105.117V174.533C79.3333 182.169 73.0858 188.417 65.4499 188.417H63.4666C55.8308 188.417 49.5833 182.169 49.5833 174.533V105.117C49.5833 97.481 55.8308 91.2335 63.4666 91.2335ZM188.417 142.8C188.417 135.164 182.169 128.917 174.533 128.917C166.897 128.917 160.65 135.164 160.65 142.8V174.534C160.65 182.169 166.897 188.417 174.533 188.417C182.169 188.417 188.417 182.169 188.417 174.534V142.8Z" fill="black" fill-opacity="0.54"/>
</svg>
