<svg width="140" height="140" viewBox="0 0 140 140" fill="none" xmlns="http://www.w3.org/2000/svg">
<path fill-rule="evenodd" clip-rule="evenodd" d="M69.9999 0.583496C77.6357 0.583496 83.8832 6.831 83.8832 14.4668V125.534C83.8832 133.169 77.6357 139.417 69.9999 139.417C62.3641 139.417 56.1166 133.169 56.1166 125.534V14.4668C56.1166 6.831 62.3641 0.583496 69.9999 0.583496ZM14.4666 42.2335H16.4499C24.0858 42.2335 30.3333 48.481 30.3333 56.1168V125.533C30.3333 133.169 24.0858 139.417 16.4499 139.417H14.4666C6.83075 139.417 0.583252 133.169 0.583252 125.533V56.1168C0.583252 48.481 6.83075 42.2335 14.4666 42.2335ZM139.417 93.8002C139.417 86.1643 133.169 79.9168 125.533 79.9168C117.897 79.9168 111.65 86.1643 111.65 93.8002V125.534C111.65 133.169 117.897 139.417 125.533 139.417C133.169 139.417 139.417 133.169 139.417 125.534V93.8002Z" fill="black" fill-opacity="0.54"/>
</svg>
