<svg width="176" height="220" viewBox="0 0 176 220" fill="none" xmlns="http://www.w3.org/2000/svg">
<path fill-rule="evenodd" clip-rule="evenodd" d="M100.773 0.833252C106.558 0.833252 112.126 3.12575 116.274 7.27409L168.893 60.0016C173.041 64.0408 175.333 69.6083 175.333 75.3941V197.333C175.333 209.342 165.508 219.167 153.5 219.167H22.3909C10.3825 219.167 0.666687 209.342 0.666687 197.333V22.6666C0.666687 10.6583 10.4917 0.833252 22.5 0.833252H100.773ZM55.25 175.5H120.75C126.754 175.5 131.667 170.587 131.667 164.583C131.667 158.579 126.754 153.667 120.75 153.667H55.25C49.2459 153.667 44.3334 158.579 44.3334 164.583C44.3334 170.587 49.2459 175.5 55.25 175.5ZM120.75 131.833H55.25C49.2459 131.833 44.3334 126.921 44.3334 120.917C44.3334 114.912 49.2459 110 55.25 110H120.75C126.754 110 131.667 114.912 131.667 120.917C131.667 126.921 126.754 131.833 120.75 131.833ZM98.9167 17.2083V66.3333C98.9167 72.3374 103.829 77.2499 109.833 77.2499H158.958L98.9167 17.2083Z" fill="white"/>
</svg>
