<?xml version="1.0" encoding="utf-8"?>
<!-- Generator: Adobe Illustrator 25.4.1, SVG Export Plug-In . SVG Version: 6.00 Build 0)  -->
<svg version="1.1" id="Layer_1" xmlns="http://www.w3.org/2000/svg" xmlns:xlink="http://www.w3.org/1999/xlink" x="0px" y="0px"
	 viewBox="0 0 512 512" style="enable-background:new 0 0 512 512;" xml:space="preserve">
<style type="text/css">
	.st0{fill:#98DA7C;}
	.st1{fill:#9E9E9E;}
	.st2{fill:#E0E0E0;}
</style>
<path class="st0" d="M264.8,319.8l-67,184c-2.4,6.5-9.5,9.8-16,7.5c-2.1-0.8-4-2.1-5.4-3.9l-28.4-35c-2.9-3.6-7.5-5.3-12.1-4.4
	l-44.2,8.6c-6.8,1.3-13.3-3.1-14.6-9.9c-0.4-2.2-0.2-4.5,0.5-6.6l67-184c2.4-6.5,9.5-9.8,16-7.5l96.8,35.2
	C263.8,306.1,267.2,313.3,264.8,319.8z"/>
<path class="st0" d="M247.2,319.8l67,184c2.4,6.5,9.5,9.8,16,7.5c2.1-0.8,4-2.1,5.4-3.9l28.4-35c2.9-3.6,7.5-5.3,12.1-4.4l44.2,8.6
	c6.8,1.3,13.3-3.1,14.6-9.9c0.4-2.2,0.2-4.5-0.5-6.6l-67-184c-2.4-6.5-9.5-9.8-16-7.5l-96.8,35.2
	C248.2,306.1,244.8,313.3,247.2,319.8z"/>
<circle class="st1" cx="256" cy="204.8" r="204.8"/>
<circle class="st2" cx="256" cy="204.8" r="153.6"/>
<g>
	<path class="st1" d="M220.1,260.2v-13.9c12.5-11,22.8-20.5,31-28.6c8.2-8.1,14.2-15.3,18.2-21.7c4-6.4,6-12.5,6-18.4
		c0-6.4-2.1-11.1-6.2-14.1c-4.2-3-9.4-4.5-15.8-4.5c-2.9,0-6.1,0.3-9.6,1c-3.5,0.7-7.1,1.6-10.9,2.8l2.1-3l-2.6,19h-9.9l-1.6-26.2
		c6.3-1.9,12.4-3.4,18.4-4.5c6-1.1,11.5-1.6,16.6-1.6c7.1,0,13.5,1,19,3c5.5,2,9.8,5.1,13,9.4c3.2,4.3,4.8,9.8,4.8,16.5
		c0,7.5-2.1,14.9-6.2,22.2c-4.1,7.3-10.1,15.1-18.1,23.4c-7.9,8.3-17.7,17.7-29.2,28.2l-0.2-2.1h56.2v13.1H220.1z"/>
</g>
</svg>
