<svg width="190" height="211" viewBox="0 0 190 211" fill="none" xmlns="http://www.w3.org/2000/svg">
<path fill-rule="evenodd" clip-rule="evenodd" d="M168.5 21.8662H124.61C120.2 9.68621 108.65 0.866211 95 0.866211C81.35 0.866211 69.8 9.68621 65.39 21.8662H21.5C9.95 21.8662 0.5 31.3162 0.5 42.8662V189.866C0.5 201.416 9.95 210.866 21.5 210.866H168.5C180.05 210.866 189.5 201.416 189.5 189.866V42.8662C189.5 31.3162 180.05 21.8662 168.5 21.8662ZM95 21.8662C100.775 21.8662 105.5 26.5912 105.5 32.3662C105.5 38.1412 100.775 42.8662 95 42.8662C89.225 42.8662 84.5 38.1412 84.5 32.3662C84.5 26.5912 89.225 21.8662 95 21.8662ZM39.35 134.216L66.545 161.411C70.64 165.506 77.36 165.506 81.35 161.411L150.545 92.2162C154.64 88.1212 154.64 81.5062 150.545 77.4112C146.45 73.3162 139.835 73.3162 135.74 77.4112L74 139.151L54.155 119.411C50.06 115.316 43.445 115.316 39.35 119.411C37.3839 121.373 36.2789 124.036 36.2789 126.814C36.2789 129.591 37.3839 132.254 39.35 134.216Z" fill="white"/>
</svg>
