<svg xmlns="http://www.w3.org/2000/svg" viewBox="0 0 240.78 280.53"><defs><style>.cls-1{fill:#b72526;}</style></defs><g id="Layer_2" data-name="Layer 2"><g id="Layer_1-2" data-name="Layer 1"><path class="cls-1" d="M120.39,39.75A120.39,120.39,0,1,0,240.78,160.14,120.39,120.39,0,0,0,120.39,39.75Zm0,211.87a91.48,91.48,0,1,1,91.48-91.48A91.48,91.48,0,0,1,120.39,251.62Z"/><path class="cls-1" d="M120.39,81.37v77.36h77.36A77.36,77.36,0,0,0,120.39,81.37Z"/><rect class="cls-1" x="93.65" width="53.47" height="26.16" rx="7.6"/><rect class="cls-1" x="105.85" y="23.24" width="29.08" height="22.85"/><rect class="cls-1" x="14.88" y="53.95" width="56.14" height="28.64" rx="8.28" transform="translate(60.86 -10.37) rotate(45)"/><rect class="cls-1" x="169.88" y="53.95" width="56.14" height="28.64" rx="8.28" transform="translate(386.2 -23.42) rotate(135)"/></g></g></svg>