<svg width="248" height="248" viewBox="0 0 248 248" fill="none" xmlns="http://www.w3.org/2000/svg">
<path fill-rule="evenodd" clip-rule="evenodd" d="M124 248C106.95 248 93 234.05 93 217V31C93 13.95 106.95 0 124 0C141.05 0 155 13.95 155 31V217C155 234.05 141.05 248 124 248ZM217 248C199.95 248 186 234.05 186 217V155C186 137.95 199.95 124 217 124C234.05 124 248 137.95 248 155V217C248 234.05 234.05 248 217 248ZM62 217V108.5C62 91.45 48.05 77.5 31 77.5C13.95 77.5 0 91.45 0 108.5V217C0 234.05 13.95 248 31 248C48.05 248 62 234.05 62 217Z" fill="#EEEEEE"/>
</svg>
