<svg id="Layer_1" data-name="Layer 1" xmlns="http://www.w3.org/2000/svg" viewBox="0 0 72 72"><defs><style>.cls-1{fill:#f44336;}.cls-2{fill:#fff;}</style></defs><path class="cls-1" d="M72,57A15,15,0,0,1,57,72H15A15,15,0,0,1,0,57V15A15,15,0,0,1,15,0H57A15,15,0,0,1,72,15Z"/><path class="cls-2" d="M61,39a5.89,5.89,0,0,0-4.25-4C53,34,36,34,36,34s-17,0-20.75,1A5.86,5.86,0,0,0,11,39c-1,3.56-1,11-1,11s0,7.44,1,11a5.89,5.89,0,0,0,4.25,4C19,66,36,66,36,66s17,0,20.75-1A5.86,5.86,0,0,0,61,61c1-3.56,1-11,1-11S62,42.56,61,39Z"/><path class="cls-1" d="M20.67,62H17.33V41.31H14V38H24v3.31H20.67ZM34,62H31l-.33-2.26A6.27,6.27,0,0,1,26.57,62a2.19,2.19,0,0,1-2.19-1.31A6.8,6.8,0,0,1,24,58.18V43h3.33V58.51a.79.79,0,0,0,.87.66,4,4,0,0,0,2.47-1.68V43H34Zm24-8.67V47.92a4.79,4.79,0,0,0-1.07-3.4A5.07,5.07,0,0,0,53.05,43a5.19,5.19,0,0,0-3.93,1.52A4.85,4.85,0,0,0,48,48v9.19a4.57,4.57,0,0,0,1.15,3.33,5.22,5.22,0,0,0,4,1.49,4.94,4.94,0,0,0,4-1.57,3.33,3.33,0,0,0,.78-1.57A17.78,17.78,0,0,0,58,57H54.67v1.33a1.7,1.7,0,0,1-3.34,0v-5Zm-6.67-6.55a1.7,1.7,0,0,1,3.34,0V51H51.33V46.78ZM45.57,45a2.78,2.78,0,0,0-2.7-2c-1.62,0-2.29.83-3.54,2.29V38H36V62h3l.33-2.07A5,5,0,0,0,42.87,62a2.75,2.75,0,0,0,2.76-2,9.26,9.26,0,0,0,.37-2.8V48.56A13.1,13.1,0,0,0,45.57,45Zm-2.9,11.84c0,1.74-.4,2.33-1.3,2.33a3.49,3.49,0,0,1-2-.87V46.9a3.84,3.84,0,0,1,2-1c.9,0,1.3.55,1.3,2.29Z"/><path class="cls-2" d="M18,6h3.67L24,17.43h.23L26.53,6h3.71L26,21.79V30H22.35V22.23ZM30.28,16.16A4.15,4.15,0,0,1,31.59,13a5,5,0,0,1,3.53-1.2A4.53,4.53,0,0,1,38.43,13a4.33,4.33,0,0,1,1.29,3.24v9a4.78,4.78,0,0,1-1.26,3.51A4.68,4.68,0,0,1,35,30a4.6,4.6,0,0,1-3.43-1.31,4.83,4.83,0,0,1-1.28-3.52v-9Zm3.35,9.33A1.55,1.55,0,0,0,34,26.6,1.27,1.27,0,0,0,35,27a1.36,1.36,0,0,0,1-.4,1.49,1.49,0,0,0,.4-1.09V16a1.18,1.18,0,0,0-.4-.92,1.52,1.52,0,0,0-1-.35,1.37,1.37,0,0,0-1,.35,1.19,1.19,0,0,0-.37.92ZM52,12V30H49.15l-.45-2.2a7.07,7.07,0,0,1-1.91,1.63,4,4,0,0,1-1.92.57,2,2,0,0,1-1.73-.79,3.89,3.89,0,0,1-.58-2.35V12h3.31V25.65a1.53,1.53,0,0,0,.21.9.78.78,0,0,0,.67.28,1.83,1.83,0,0,0,.92-.37,4.78,4.78,0,0,0,1-.95V12Z"/></svg>